<svg xmlns="http://www.w3.org/2000/svg" version="1.1" xmlns:xlink="http://www.w3.org/1999/xlink" xmlns:svgjs="http://svgjs.com/svgjs" width="1440" height="560" preserveAspectRatio="none" viewBox="0 0 1440 560"><g mask="url(&quot;#SvgjsMask1332&quot;)" fill="none"><path d="M1437.98 659.47 L1472.95 490.68L1546.003239988863 665.6132399888629z" fill="rgba(0, 0, 0, 1)"></path><path d="M449.17 25.1a5.6 5.6 0 1 0-2.48-10.92 5.6 5.6 0 1 0 2.48 10.92zM445.63 9.5a5.6 5.6 0 1 0-2.48-10.92 5.6 5.6 0 1 0 2.48 10.92zM442.09-6.1a5.6 5.6 0 1 0-2.47-10.93 5.6 5.6 0 1 0 2.47 10.93zM438.56-21.71a5.6 5.6 0 1 0-2.48-10.92 5.6 5.6 0 1 0 2.48 10.92z" fill="rgba(0, 0, 0, 1)"></path><rect width="323.44" height="323.44" clip-path="url(&quot;#SvgjsClipPath1333&quot;)" x="163.34" y="243.38" fill="url(#SvgjsPattern1334)" transform="rotate(151.89, 325.06, 405.1)"></rect><circle r="92.41973991603835" cx="290.09" cy="158.66" stroke="rgba(49, 211, 92, 1)" stroke-width="2.35"></circle><path d="M299.25 430.26 L368.63 338.02L410.27730632306435 460.47730632306434z" stroke="rgba(0, 0, 0, 1)" stroke-width="1" stroke-dasharray="3, 2"></path><path d="M91.89 329.33L80.26 334.68 72.48 324.51 60.85 329.86 53.08 319.68 41.44 325.03 33.67 314.86M93.82 321.57L82.19 326.92 74.41 316.74 62.78 322.09 55.01 311.92 43.37 317.27 35.6 307.09M95.75 313.8L84.12 319.15 76.34 308.98 64.71 314.33 56.93 304.15 45.3 309.51 37.53 299.33" stroke="rgba(49, 211, 92, 1)" stroke-width="1.92" stroke-dasharray="3, 3"></path><rect width="60" height="60" clip-path="url(&quot;#SvgjsClipPath1335&quot;)" x="643.95" y="251.05" fill="url(#SvgjsPattern1336)" transform="rotate(234.62, 673.95, 281.05)"></rect><path d="M553.64 103.49a5.6 5.6 0 1 0-10.59 3.64 5.6 5.6 0 1 0 10.59-3.64zM538.51 108.69a5.6 5.6 0 1 0-10.59 3.64 5.6 5.6 0 1 0 10.59-3.64zM523.38 113.89a5.6 5.6 0 1 0-10.59 3.64 5.6 5.6 0 1 0 10.59-3.64zM508.25 119.09a5.6 5.6 0 1 0-10.59 3.64 5.6 5.6 0 1 0 10.59-3.64z" stroke="rgba(0, 0, 0, 1)" stroke-width="1.61" stroke-dasharray="3, 2"></path><rect width="76.6" height="76.6" clip-path="url(&quot;#SvgjsClipPath1337&quot;)" x="102.9" y="441.48" fill="url(#SvgjsPattern1338)" transform="rotate(208.65, 141.2, 479.78)"></rect><path d="M383.36 392.46L396.02 394.34 396.97 407.12 409.63 409 410.58 421.77 423.24 423.65 424.19 436.43M377.5 397.9L390.16 399.79 391.1 412.56 403.77 414.44 404.71 427.21 417.38 429.1 418.32 441.87M371.63 403.35L384.3 405.23 385.24 418 397.91 419.89 398.85 432.66 411.52 434.54 412.46 447.31" stroke="rgba(49, 211, 92, 1)" stroke-width="2.43" stroke-dasharray="2, 2"></path><path d="M616.32 475.09L609.41 485.87 597.37 481.49 590.46 492.27 578.42 487.9 571.51 498.68 559.48 494.3M613.76 467.51L606.85 478.29 594.81 473.91 587.9 484.69 575.86 480.32 568.95 491.1 556.92 486.72M611.2 459.93L604.28 470.71 592.25 466.34 585.34 477.12 573.3 472.74 566.39 483.52 554.35 479.14" stroke="rgba(0, 0, 0, 1)" stroke-width="2.21" stroke-dasharray="3, 2"></path><circle r="46.666666666666664" cx="103.48" cy="141.97" fill="rgba(0, 0, 0, 1)"></circle></g><defs><mask id="SvgjsMask1332"><rect width="1440" height="560" fill="#ffffff"></rect></mask><pattern x="0" y="0" width="12.44" height="12.44" patternUnits="userSpaceOnUse" id="SvgjsPattern1334"><path d="M0 12.44L6.22 0L12.44 12.44" stroke="rgba(49, 211, 92, 1)" fill="none"></path></pattern><clipPath id="SvgjsClipPath1333"><circle r="80.86" cx="325.06" cy="405.1"></circle></clipPath><pattern x="0" y="0" width="60" height="6" patternUnits="userSpaceOnUse" id="SvgjsPattern1336"><rect width="60" height="3" x="0" y="0" fill="rgba(0, 0, 0, 1)"></rect><rect width="60" height="3" x="0" y="3" fill="rgba(0, 0, 0, 0)"></rect></pattern><clipPath id="SvgjsClipPath1335"><circle r="15" cx="673.95" cy="281.05"></circle></clipPath><pattern x="0" y="0" width="7.66" height="7.66" patternUnits="userSpaceOnUse" id="SvgjsPattern1338"><path d="M3.83 1L3.83 6.66M1 3.83L6.66 3.83" stroke="rgba(0, 0, 0, 1)" fill="none" stroke-width="2.68"></path></pattern><clipPath id="SvgjsClipPath1337"><circle r="19.15" cx="141.2" cy="479.78"></circle></clipPath></defs></svg>